<svg width="24" height="24" viewBox="0 0 24 24" fill="none" xmlns="http://www.w3.org/2000/svg">
<path d="M0.905743 8.54303H1.96943L3.96858 13.8757L5.96299 8.54303H7.02668L4.38646 15.457H3.54121L0.905743 8.54303ZM0.421387 8.54303H1.43284L1.60853 13.1587V15.457H0.421387V8.54303ZM6.49958 8.54303H7.51578V15.457H6.32389V13.1587L6.49958 8.54303Z" fill="#263238"/>
<path d="M10.4466 8.54303V15.457H9.25472V8.54303H10.4466Z" fill="#263238"/>
<path d="M15.8087 13.6763C15.8087 13.5338 15.7866 13.4072 15.7422 13.2964C15.7011 13.1856 15.6267 13.0843 15.5191 12.9925C15.4114 12.9007 15.2595 12.812 15.0632 12.7265C14.8701 12.6379 14.6232 12.5477 14.3224 12.4559C13.9932 12.3546 13.6893 12.2422 13.4107 12.1187C13.1353 11.9921 12.8947 11.8465 12.6889 11.6819C12.4831 11.5141 12.3233 11.3225 12.2093 11.1073C12.0953 10.8888 12.0383 10.6372 12.0383 10.3522C12.0383 10.0705 12.0969 9.81407 12.214 9.58297C12.3343 9.35187 12.5037 9.15243 12.7221 8.98465C12.9437 8.8137 13.2049 8.68232 13.5057 8.59052C13.8064 8.49554 14.1388 8.44806 14.5029 8.44806C15.0157 8.44806 15.4573 8.54303 15.8277 8.73297C16.2013 8.92292 16.4878 9.17776 16.6872 9.4975C16.8898 9.81724 16.9911 10.1702 16.9911 10.5564H15.8087C15.8087 10.3285 15.7597 10.1275 15.6615 9.95336C15.5665 9.77608 15.4209 9.63679 15.2246 9.53549C15.0315 9.43418 14.7862 9.38353 14.4886 9.38353C14.2069 9.38353 13.9726 9.42627 13.7858 9.51174C13.599 9.59722 13.4598 9.71277 13.3679 9.85839C13.2761 10.004 13.2302 10.1686 13.2302 10.3522C13.2302 10.482 13.2603 10.6008 13.3205 10.7084C13.3806 10.8129 13.4724 10.911 13.5959 11.0028C13.7193 11.0914 13.8745 11.1753 14.0612 11.2545C14.248 11.3336 14.468 11.4096 14.7213 11.4824C15.1044 11.5964 15.4383 11.723 15.7232 11.8623C16.0082 11.9984 16.2456 12.1535 16.4355 12.3277C16.6255 12.5018 16.7679 12.6996 16.8629 12.9212C16.9579 13.1397 17.0054 13.3882 17.0054 13.6668C17.0054 13.958 16.9468 14.2208 16.8297 14.455C16.7125 14.6861 16.5448 14.884 16.3263 15.0486C16.1111 15.2101 15.8515 15.3351 15.5476 15.4237C15.2468 15.5092 14.9112 15.552 14.5409 15.552C14.2084 15.552 13.8808 15.5076 13.5579 15.419C13.2382 15.3304 12.9469 15.1958 12.6842 15.0154C12.4214 14.8317 12.2125 14.6038 12.0573 14.3316C11.9022 14.0561 11.8247 13.7348 11.8247 13.3676H13.0166C13.0166 13.5924 13.0545 13.7839 13.1305 13.9422C13.2097 14.1005 13.3189 14.2303 13.4582 14.3316C13.5975 14.4297 13.7589 14.5025 13.9425 14.55C14.1293 14.5975 14.3287 14.6212 14.5409 14.6212C14.8194 14.6212 15.0521 14.5817 15.2389 14.5025C15.4288 14.4234 15.5713 14.3126 15.6663 14.1701C15.7612 14.0277 15.8087 13.863 15.8087 13.6763Z" fill="#263238"/>
<path d="M22.3865 13.2061H23.5736C23.5356 13.6588 23.409 14.0625 23.1937 14.417C22.9785 14.7684 22.6761 15.0454 22.2868 15.248C21.8974 15.4506 21.4241 15.552 20.8669 15.552C20.4396 15.552 20.0549 15.476 19.713 15.324C19.3711 15.1689 19.0783 14.9505 18.8345 14.6687C18.5908 14.3838 18.404 14.0403 18.2742 13.6383C18.1476 13.2362 18.0842 12.7867 18.0842 12.2897V11.7151C18.0842 11.2181 18.1491 10.7685 18.2789 10.3665C18.4119 9.96444 18.6018 9.62096 18.8488 9.33605C19.0957 9.04796 19.3917 8.82795 19.7368 8.67599C20.085 8.52404 20.476 8.44806 20.9097 8.44806C21.4605 8.44806 21.9259 8.54936 22.3057 8.75197C22.6856 8.95458 22.98 9.23474 23.189 9.59247C23.4011 9.9502 23.5309 10.3602 23.5784 10.8224H22.3912C22.3596 10.5248 22.2899 10.2699 22.1823 10.0578C22.0778 9.84573 21.9227 9.68428 21.7169 9.57348C21.5112 9.45951 21.2421 9.40253 20.9097 9.40253C20.6374 9.40253 20.4 9.45318 20.1974 9.55448C19.9948 9.65578 19.8254 9.80457 19.6893 10.0008C19.5531 10.1971 19.4503 10.4393 19.3806 10.7274C19.3141 11.0123 19.2809 11.3384 19.2809 11.7056V12.2897C19.2809 12.6379 19.311 12.9545 19.3711 13.2394C19.4344 13.5211 19.5294 13.7633 19.656 13.9659C19.7858 14.1685 19.9504 14.3252 20.1499 14.436C20.3493 14.5468 20.5883 14.6022 20.8669 14.6022C21.2057 14.6022 21.4795 14.5484 21.6884 14.4408C21.9005 14.3331 22.0604 14.1764 22.168 13.9707C22.2788 13.7617 22.3517 13.5069 22.3865 13.2061Z" fill="#263238"/>
</svg>
